<?xml version="1.0" encoding="UTF-8"?>
<svg width="418px" height="324px" viewBox="0 0 418 324" version="1.1" xmlns="http://www.w3.org/2000/svg" xmlns:xlink="http://www.w3.org/1999/xlink">
    <!-- Generator: Sketch 58 (84663) - https://sketch.com -->
    <title>hero-coffee</title>
    <desc>Created with Sketch.</desc>
    <g id="Templates" stroke="none" stroke-width="1" fill="none" fill-rule="evenodd">
        <g id="Landing-Page-Example" transform="translate(-391.000000, -108.000000)">
            <g id="hero-content" transform="translate(290.000000, 95.000000)">
                <g id="Illustrations/coffee" transform="translate(77.000000, 0.000000)">
                    <path d="M129.790061,207.405021 C131.914664,205.954979 136.259587,200.764197 138.535993,199.564577 C143.597753,196.897209 166.147655,191.653535 166.880842,191.34367 C167.997629,190.871916 175.252021,189.223308 179.478553,188.181782 C189.403659,185.735746 224.970776,169.936427 234.345362,165.885417 C235.542145,169.039083 245.421899,182.960874 243.726877,184.387517 C238.146721,189.084817 228.144769,194.933677 221.680884,198.299822 C216.452834,201.022207 210.91551,203.275141 205.325276,205.114727 C198.978549,207.20347 194.622261,209.442946 188.29695,211.579749 C182.073681,213.681772 189.51074,220.256601 192.706779,221.614948 C196.291457,223.138978 201.843898,223.912375 205.506683,225.233412 C199.057915,235.270507 193.642159,247.452627 192.558756,259.476021 C192.297983,262.36978 190.095273,265.022604 186.512484,264.156246 C184.66377,263.709156 167.60584,261.433861 164.824266,260.798954 C146.25587,256.558231 112.921779,234.35103 121.505859,211.579749 C123.472362,212.489108 127.962133,208.652702 129.790061,207.405021 Z" id="Accent" fill="#FF5678"></path>
                    <g id="Ink" stroke-width="1" transform="translate(24.574219, 13.671875)" fill="#000000">
                        <path d="M115.604086,72.9166486 C116.991201,72.799449 120.577785,70.0245031 118.695947,68.6211593 C116.797093,67.2049969 115.432666,71.9503619 115.604086,72.9166486 M43.3440839,83.5591386 C43.7066253,83.4952081 43.5483517,81.5079354 42.9774842,81.2540228 C41.1755993,80.4530826 41.023413,83.463846 40.9794481,84.2696112 C40.9246611,85.2864675 40.797501,88.1506733 42.9883063,87.3654141 C44.2321751,86.9197102 43.4604218,84.3214793 43.3440839,83.5591386 M149.720916,92.8424489 C149.671891,94.6162314 153.25008,98.0270152 154.584299,95.9809196 C155.706284,94.2620995 149.81276,89.3117474 149.720916,92.8424489 M23.2090126,52.8392614 C24.2457955,55.4875592 29.3729962,51.8781565 29.5635297,49.9355105 C29.9547926,45.9570531 23.1554848,50.1921658 23.2090126,52.8392614 M65.9860419,64.2577945 C68.3737867,64.0612801 71.5157527,61.0212728 73.8182431,59.8855079 C75.376469,59.1170302 79.6161629,58.2010098 80.0772832,56.4562389 C80.4786633,54.9400023 73.2849365,58.1853138 72.6707316,58.4734929 C69.8486251,59.7976101 67.3040621,61.3069405 65.9860419,64.2577945 M245.240086,43.2942528 C247.143249,41.8206046 249.456773,40.869924 251.896709,40.9321821 C253.115089,40.9633111 255.656663,41.7265949 255.751948,39.6166693 C255.907581,36.1856277 245.147977,40.3699918 243.466511,41.0430014 C244.057914,41.7938336 244.649318,42.5440432 245.240086,43.2942528 M126.511433,176.999207 C125.115183,174.67728 122.603887,173.334916 120.715533,171.354149 C121.407474,174.606629 119.84719,177.499491 118.775104,180.468732 C121.354097,179.312224 123.93244,178.155715 126.511433,176.999207 M368.979396,226.497378 C369.749114,223.918631 370.519496,221.354053 371.419495,218.814593 C372.425844,215.971145 372.92636,215.725121 370.516838,213.736961 C368.517432,217.522 366.517362,221.307038 364.517292,225.092721 C365.941071,225.698765 367.426666,226.288708 368.979396,226.497378 M162.007526,39.8146578 C159.359728,36.825893 146.950559,36.6382408 148.486294,43.2346499 C149.021987,45.5380493 152.072806,43.0911146 153.984027,42.5542554 C155.880855,42.0211244 161.251549,41.9502888 162.007526,39.8146578 M161.552448,82.1291752 C161.231427,81.3664033 160.590644,78.6134178 159.63954,78.3964488 C158.712985,78.1850117 155.05712,81.072604 154.369757,81.513303 C150.941755,83.7131099 147.599988,86.0794851 144.259479,88.4114403 C145.538528,88.4114403 146.69987,87.9553753 147.971365,87.945541 C149.482053,87.9326335 150.565971,88.5540374 152.038892,88.1993885 C155.203783,87.4384606 158.877272,83.926391 161.552448,82.1291752 M164.982077,13.9317387 C165.27952,12.564667 180.793898,16.6684446 182.658514,17.4198856 C183.674299,17.8285978 188.915694,20.5569757 187.789248,16.4448701 C187.148306,14.1027829 181.091341,12.3173898 179.150605,11.6754939 C174.216247,10.0444889 169.013871,8.88433574 163.759682,9.1533939 C162.73942,9.20528369 155.012935,9.65179212 158.239394,12.7619763 C159.351127,13.8330841 163.336225,13.4954801 164.982077,13.9317387 M168.37862,201.757176 C171.269079,203.181294 174.220238,204.270767 177.241484,205.384589 C178.583773,205.879066 180.67449,207.174571 182.155076,206.84929 C183.36783,206.582072 183.756436,204.732778 184.393476,203.494713 C186.722614,198.965753 189.504188,195.312117 192.952839,191.577942 C191.351478,190.408554 183.22265,195.567472 181.211406,196.329167 C179.197659,197.091485 177.297804,197.859423 175.327235,198.770335 C173.47181,199.628177 169.810395,200.394867 168.37862,201.757176 M219.558447,163.151024 C223.770877,161.242114 227.763896,157.856822 231.218822,154.825988 C235.185917,151.345629 238.742012,147.698428 241.646198,143.194989 C239.898501,143.28439 236.040163,148.913532 235.997167,142.785127 C235.975036,139.658596 240.253226,136.579283 241.581071,133.679403 C238.277898,131.812047 235.250412,142.970856 231.460363,140.266148 C227.809422,137.659656 233.570372,128.698737 234.680071,125.871259 C232.538447,124.444614 220.336817,140.41599 218.570783,142.459631 C217.466143,143.738952 214.854082,145.441987 214.230627,146.934109 C213.859463,147.822457 213.806349,150.64112 213.985924,151.458325 C214.359618,153.167025 216.252113,155.213185 217.094978,156.804152 C218.16168,158.818202 219.09054,160.911581 219.558447,163.151024 M393.713104,220.733343 C390.070184,215.58391 393.833025,213.338331 396.795329,209.064283 C399.164407,205.645423 401.344035,201.876915 402.8456,198.059177 C406.601424,188.510101 409.990468,179.632552 411.845417,169.531232 C409.29263,170.698201 407.69666,175.1395 406.419629,177.47975 C404.702462,180.625959 403.191967,183.928059 401.283437,186.976442 C397.711959,192.680643 394.205545,198.765418 389.66258,203.709731 C387.604148,205.950262 385.861466,208.471016 383.486647,210.490018 C382.401617,211.412106 380.325963,212.169469 379.526702,213.322553 C378.772093,214.411261 379.616005,215.107403 379.329598,216.408173 C379.035536,217.742393 377.687701,219.164972 377.109146,220.449963 C376.349433,222.137619 375.642027,223.829062 374.794287,225.47948 C373.869364,227.278847 373.616765,228.21987 373.367355,229.978844 C373.094981,231.901913 373.930601,232.101352 372.25362,233.873579 C375.29247,235.215373 378.331319,236.557167 381.370169,237.89896 C382.395239,238.352115 383.420946,238.804639 384.446653,239.257794 C384.662894,238.851974 384.879135,238.446154 385.095375,238.040335 C385.930357,237.228063 386.698362,235.22484 387.176132,234.15191 C389.17269,229.674636 391.427588,225.179691 393.713104,220.733343 M100.262748,199.116952 C91.6342281,221.866432 121.955628,241.021262 140.620358,245.257882 C143.205874,245.844248 145.7287,246.61259 148.302185,247.242554 C151.108068,247.929386 153.599865,247.792904 156.400683,248.0804 C158.629052,248.308501 159.690994,250.032847 161.790816,250.508005 C165.299595,251.301621 165.084927,248.661079 165.336323,245.831611 C166.401432,233.834489 172.515358,222.259449 178.986431,212.248894 C176.030469,211.189897 173.101737,210.034226 170.18377,208.874763 C167.686908,207.882111 163.863408,205.09245 161.179107,204.944595 C159.193901,204.835915 156.168917,206.533722 154.240703,207.278685 C151.029546,208.519658 147.808891,209.576759 144.462221,210.422819 C138.609823,211.902635 132.09759,213.919531 126.041922,214.072442 C124.296081,214.116672 119.506891,214.931139 118.250545,213.850659 C115.855,211.790164 119.18014,210.072769 121.185609,209.337284 C133.138002,204.954073 145.828752,203.090718 157.815339,198.596931 C163.983091,196.283692 170.087518,193.701281 176.29453,191.422795 C181.644769,189.458975 187.248938,187.720096 192.419337,185.304496 C199.247557,182.1155 206.105539,178.142366 212.018095,173.461548 C213.201619,172.525132 215.681385,171.133777 216.492564,169.776542 C217.206858,168.581695 217.117572,169.773382 216.969394,168.324528 C216.863009,167.283855 215.591465,165.873544 215.068409,164.89037 C213.119931,161.224951 211.358893,157.459698 209.878379,153.580711 C200.446279,157.632196 191.473277,163.146437 182.179857,167.47594 C172.826278,171.833877 162.275244,174.908507 152.268796,177.360123 C148.009628,178.403955 143.113421,178.733786 139.207601,180.796177 C137.547881,181.671934 135.907157,182.685438 134.129655,183.192189 C133.604699,184.200637 133.087976,184.398409 132.578851,183.784874 C132.259699,183.426609 131.84746,183.274963 131.341502,183.330566 C130.25423,183.515069 129.145428,184.029403 128.128445,184.424316 C122.982109,186.422256 118.05424,188.924421 113.168166,191.477135 C110.852409,192.686515 108.477128,193.87757 106.260791,195.258816 C105.072834,195.999356 104.008358,196.746214 103.036336,197.762876 C101.871175,198.981734 102.148534,199.983863 100.262748,199.116952 M294.426174,64.0436297 C296.606664,64.0789898 298.594035,62.8963203 300.86793,62.9619891 C304.443808,63.0655437 307.274343,65.841944 309.349438,68.5192098 C313.456081,73.8169124 312.409067,80.2076214 310.345963,86.1361232 C309.358905,88.9693523 308.003908,91.6889238 306.310636,94.1691832 C304.811746,96.3646674 302.132046,98.4414426 301.085663,100.886342 C299.360204,104.918026 302.841415,103.203692 304.972679,102.342421 C307.652379,101.258886 310.164834,99.9120444 312.43936,98.0979443 C322.576905,90.0124756 330.289088,78.7736425 332.872228,65.8665698 C334.132558,59.5693126 334.035367,52.2074633 329.654821,47.0676183 C325.650418,42.3678804 318.737222,40.8322412 312.827494,41.7036154 C306.439382,42.6463413 300.650196,45.35581 295.448575,48.8438326 C293.937694,49.8572786 292.554297,50.963545 291.135558,52.096963 C289.27441,53.583982 288.159236,53.6231307 288.624996,55.953741 C288.970846,57.6863865 289.913095,59.4815437 290.520224,61.1441005 C291.656856,64.2583161 291.242216,65.0640216 294.426174,64.0436297 M301.378109,117.729109 L300.936937,118.483903 C303.9785,118.629178 306.811453,115.942236 309.403021,114.630347 C312.769791,112.925586 315.759044,110.599935 318.709222,108.251546 C323.911896,104.109336 329.182636,99.4416122 333.054863,94.0039352 C341.736491,81.8141654 349.622119,66.3601472 347.253027,50.9054973 C344.699904,34.2488612 330.151954,27.8372154 314.650442,30.0422253 C307.664805,31.0357746 301.427898,34.1591702 295.175866,37.3299378 C292.02464,38.9285858 289.365005,41.0022173 286.477852,43.009528 C284.979759,44.0517125 283.612757,44.1868807 283.515069,46.0091247 C283.44133,47.3822818 285.811682,50.4873602 286.452642,51.7316654 C294.302346,43.7125288 302.761497,37.0785503 314.615779,36.6686243 C328.718776,36.1810083 337.05818,49.5721327 336.996416,62.3954244 C336.935913,74.9711183 331.519586,87.0680389 322.885226,96.1059899 C318.96132,100.21346 315.220184,103.50929 310.40196,106.506992 C308.000095,108.001422 306.228476,109.342997 303.543001,110.335283 C301.643442,111.037653 301.841339,110.667519 301.35668,112.428495 C300.94513,113.922925 301.365504,116.177202 301.378109,117.729109 M224.747009,288.586501 C224.563536,290.852763 224.103589,293.083785 223.591764,295.294304 C223.407659,296.088168 222.37262,298.594063 222.554194,299.4866 C222.854077,300.961561 222.454866,300.01328 223.745501,300.782797 C225.091811,301.586273 226.658921,301.537577 228.133029,301.781695 C229.0428,301.932267 232.376308,303.503337 232.936849,303.255375 C233.916846,302.8216 233.885845,301.292178 234.961375,300.686047 C236.426625,299.859505 238.585909,300.567512 239.96828,301.214009 C243.663673,302.940135 246.202555,306.513487 249.778374,308.469636 C256.128426,311.942393 263.663458,313.865224 270.748033,314.658447 C274.585775,315.088377 278.513355,315.842517 282.303648,314.942291 C285.289823,314.232362 289.171219,314.297716 290.794636,311.08894 C276.367991,307.115773 254.348741,302.253913 248.644639,285.674383 C245.543951,288.48975 240.361798,286.973783 236.614527,286.58486 C232.492086,286.157493 228.808081,286.256806 225.038035,284.374982 C224.762193,285.854428 224.678049,287.082066 224.747009,288.586501 M97.015542,185.902329 C103.80667,186.313232 110.244905,183.094808 114.424109,177.664704 C115.452797,176.327219 116.507649,174.961961 117.125373,173.377681 C117.259383,172.976246 117.392755,172.574179 117.526765,172.172744 C118.17512,171.063748 117.891146,170.540494 116.675481,170.602981 C115.990753,169.662512 114.254363,169.346288 114.748286,167.641451 C115.120324,166.355091 116.492972,166.334262 117.686301,165.929671 C117.092189,164.92987 116.736743,164.428076 115.886097,163.538734 C113.675566,165.530129 109.664194,169.438441 108.110951,164.863596 C107.364961,162.667695 108.678261,160.568366 108.352808,158.450102 C108.218797,157.574014 107.109703,155.335824 106.467092,154.811939 C103.04345,152.020828 98.1125114,153.175901 94.480196,154.818882 C91.9767572,155.951232 91.4381637,156.482691 91.0297516,159.078764 C90.614958,161.71839 90.2301572,164.356752 89.7700554,166.988803 C91.2722463,166.204869 91.54601,164.511393 92.525561,163.291939 C92.8924938,163.960998 93.2594266,164.630688 93.6276357,165.299746 C94.1445323,165.0094 94.6276072,165.024548 95.0755843,165.346454 C95.8005159,166.462393 95.3442429,168.117366 95.1215307,169.287587 C97.53882,169.061622 98.5604885,171.762472 96.1234167,172.85632 C93.5989192,173.989301 92.4604703,170.900271 92.374959,168.899407 C91.4330586,170.026076 90.4656323,169.423292 89.8089822,170.002091 C89.1529702,170.58089 88.8945219,171.787089 88.6609612,173.108164 C88.2774366,175.278817 87.2959712,178.410768 88.2040501,180.588364 C89.5524483,183.822567 93.8516242,185.505313 97.015542,185.902329 M293.803192,82.0199237 C291.55616,85.1493334 287.724779,89.2459119 286.923718,93.0268347 C289.398628,91.5722937 294.631547,84.5735776 295.979767,90.1486869 C296.753533,93.3488035 292.78441,97.1619232 291.809427,100.260399 C295.712535,98.9744177 298.492761,94.9466521 300.928316,91.8380757 C304.033537,87.8747039 307.204138,82.6499723 307.996947,77.6102149 C308.63805,73.5319445 305.812755,69.7308196 301.615121,69.3311996 C299.470919,69.1266548 297.232138,69.4675629 295.160298,69.9656674 C294.215783,70.1923081 292.806627,70.4738729 291.963672,70.9808159 C290.904901,71.6171776 290.760177,73.1077033 289.762977,71.8678081 C288.438243,74.3684318 287.11351,76.8690555 285.788776,79.3690479 C287.107162,78.8898827 289.797254,76.8564293 291.238147,77.0666559 C293.34236,77.3741045 293.774628,80.4347013 293.803192,82.0199237 M83.4069336,20.801471 C77.5157329,20.9753684 71.3581442,22.2316493 65.7812432,24.0991284 C64.3962808,24.563281 58.5536305,26.2140277 59.7839983,28.6070351 C60.5972166,30.1887343 64.982079,27.9536411 66.3076311,27.5809125 C71.9886598,25.9832301 77.8383372,24.9296164 83.6573511,23.968066 C85.0665887,23.7353504 89.846242,23.7583662 90.0928266,21.9087883 C90.3949886,19.651958 85.0704216,20.7989137 83.4069336,20.801471 M243.736574,278.207273 C240.543578,278.597818 237.477508,278.451741 234.281308,278.059988 C231.591525,277.730409 228.852382,276.627586 226.176061,276.627586 C226.176061,279.496616 225.981828,279.514725 229.004308,280.128612 C231.113954,280.557186 233.253729,280.798032 235.385811,281.096826 C239.139712,281.622584 243.30708,283.097844 247.107136,282.33969 C247.014827,281.8417 246.723797,278.479508 246.330201,278.14691 C246.108403,277.96039 244.059014,278.210291 243.736574,278.207273 M192.129524,65.9336458 C193.022316,66.5033511 195.07462,68.7749913 196.138386,68.8150861 C195.758514,66.1849864 192.828339,61.6058003 189.46358,63.2311361 C188.639177,63.6296904 186.90706,65.6140842 187.69043,66.4895873 C188.108849,66.9575595 191.035293,65.936638 192.129524,65.9336458 M160.998008,89.3304597 C161.030466,88.8722102 161.063587,88.4139607 161.09737,87.9557111 C159.862631,88.6828004 158.333781,89.026793 157.456745,90.1980789 C158.509983,90.6654934 159.562558,91.1335189 160.616458,91.6015445 C160.743641,90.8445162 160.870825,90.087488 160.998008,89.3304597 M258.237328,159.156784 C264.070922,161.202537 269.419068,163.934847 273.712882,168.573067 C277.424537,172.583577 279.169116,179.650377 280.074906,184.907449 C282.316943,197.916613 277.990893,209.97472 275.138253,222.420084 C273.691391,228.733252 271.530894,234.808498 269.508194,240.958411 C267.742123,246.328749 266.227627,251.952828 263.789641,257.0593 C261.722694,261.38936 259.081806,265.658041 257.263272,270.150091 C256.28479,272.567281 254.698867,280.862292 250.984683,278.257169 C249.971437,280.911015 249.72492,280.685116 250.808329,282.528381 C251.592758,283.862898 254.252609,285.715655 255.507947,286.802125 C258.852988,289.698956 263.089913,292.085773 267.013951,294.113808 C274.20149,297.828813 281.906082,300.607949 289.307901,303.994546 C292.580251,305.49295 296.128826,307.262814 295.394333,311.549846 C294.779306,315.143359 292.702877,317.868709 289.464028,319.467724 C286.423657,320.969293 282.074219,322.128531 278.729179,322.599314 C276.744404,322.878999 276.289296,322.051966 274.671136,321.765953 C272.870301,321.448301 270.768589,322.062723 268.910865,322.046904 C260.571019,321.974135 253.269071,319.872699 246.529686,315.02946 C244.121408,313.298828 240.575994,308.603658 237.424374,308.604291 C235.813167,308.604291 236.153233,309.584455 234.736079,310.159645 C232.987075,310.868983 229.973884,309.530037 228.254589,309.215549 C224.591605,308.546076 220.866676,307.865846 218.427426,304.706414 C215.79033,301.291975 216.727725,297.062526 217.86107,293.270955 C219.138531,288.996579 221.28765,284.660191 222.201026,280.321272 C222.423523,279.265808 222.628321,277.298519 222.402664,276.224704 C222.05122,274.558615 220.371746,273.56453 220.321179,271.760497 C220.305377,271.211883 221.089805,270.487992 221.226969,269.921661 C221.529742,268.67763 221.482967,267.386775 221.60749,266.120598 C221.829987,263.862234 222.344511,261.698153 222.699116,259.466365 C223.505668,254.387103 225.096016,249.856454 226.635796,244.962594 C228.129434,240.213005 229.551013,236.67834 232.43905,232.565953 C233.933952,230.436042 238.935078,222.847838 236.492668,220.664141 C233.150156,227.239277 229.241287,232.367263 224.125752,237.601555 C220.213091,241.605737 216.387659,246.988097 211.490828,249.839369 C206.106652,252.974755 199.527188,254.819286 193.581713,256.477149 C190.753725,257.264951 188.407393,259.0133 185.358804,259.336647 C182.05485,259.68657 178.69211,259.274003 175.456422,258.53619 C174.545575,258.328641 171.918593,256.92705 171.094342,257.016271 C169.88009,257.148521 168.133615,259.315766 166.801161,259.713779 C163.557887,260.682554 161.343031,258.831695 158.882921,257.121312 C156.212957,255.264758 155.405141,254.803467 152.324316,254.580098 C148.550715,254.306741 144.880778,252.974755 141.169123,252.159112 C134.643386,250.72525 129.096763,247.81956 123.165194,244.777824 C116.365761,241.291882 110.549865,236.484079 105.424848,230.804948 C97.8909219,222.455519 87.3987962,199.319469 99.7056634,191.218719 C92.4606037,190.233493 85.8248825,187.065202 84.9418474,178.853085 C84.4804189,174.555928 85.3489158,169.796216 86.4279,165.654089 C86.9203011,163.762733 87.5075163,161.883399 88.0700798,160.011659 C88.4935827,159.37952 88.717976,158.6879 88.7413635,157.936166 C89.0011541,156.96233 88.6263224,156.476994 87.6168686,156.481423 C85.7085772,154.247104 84.2737242,152.274753 83.888147,149.102034 C83.7667849,148.096559 83.6580648,146.555126 84.3723308,145.70025 C84.7029159,145.356655 85.1017671,145.126959 85.5676203,145.011794 C86.6857943,145.075704 87.0018412,144.523927 86.5157611,143.357095 C87.0587297,141.703661 86.2534421,140.415337 88.2995299,139.724982 C88.9556433,139.864825 89.6085963,140.017956 90.2590208,140.183109 C91.08896,140.56214 91.6287682,140.287517 91.8797094,139.361771 C93.8075957,138.606241 92.9182396,137.489398 95.5376365,138.461336 C97.1229279,139.049814 98.6311038,140.062883 99.7853072,141.296788 C101.233434,140.365981 97.9402252,134.612183 97.8302409,132.776511 C97.5698182,128.449614 99.3561155,124.87192 101.680325,121.317639 C106.197899,114.41093 112.503667,108.47173 118.721575,103.127969 C130.632119,92.894144 143.144417,83.1513504 156.592845,74.9980805 C151.044958,71.1394356 144.563467,70.0934631 137.961879,71.8867395 C131.87608,73.5401733 126.943219,76.5426774 121.340972,79.1693149 C116.151481,81.6016912 110.642783,82.6008385 108.987961,75.9630581 C107.13403,68.5279847 113.049164,65.7678323 118.35496,62.4337555 C117.030091,61.4440998 112.668644,62.1515391 111.018879,62.268602 C107.344517,62.5286714 103.830708,63.3595013 100.26001,64.0941498 C98.5476674,64.4459712 96.9743858,64.3668746 95.277846,64.7117355 C92.7557915,65.224281 90.1224886,65.7988381 87.5707257,66.5290573 C81.5000964,68.2679153 75.4743458,70.9065754 70.2285989,74.4621224 C65.6945898,77.5335987 62.5492908,81.8706194 58.8964205,85.8653104 C54.7302899,90.4200047 50.7386173,94.9012975 44.5624283,96.5686522 C41.670599,97.3494931 38.2781513,98.058198 36.2276389,95.4714252 C34.3199797,93.0662581 34.2137879,90.1675286 34.2763652,87.2264034 C34.4141616,80.7303639 37.5480829,73.710389 41.1933681,68.402063 C45.1502756,62.6400393 50.4497504,59.3401322 55.4571979,54.7019119 C48.2197233,55.2201524 41.2249728,59.040831 34.5690246,61.6813894 C33.1683047,62.2375962 31.7543107,62.8621423 30.3460057,63.3765861 C28.8441507,63.9251996 27.849235,63.5891976 26.4105894,63.8404082 C23.1268618,64.4143325 20.3064591,65.8001037 17.1124889,63.5904631 C11.0696717,59.4110027 17.1238666,50.9084426 21.2843083,48.2995227 C27.0793447,44.6661447 32.974884,41.6066911 39.3590318,39.0148562 C35.9027427,35.2606186 38.8546209,29.9029364 42.0403739,27.2395982 C46.0712364,23.8694534 51.2038384,21.9382326 56.0608475,20.134199 C59.9020818,18.7072977 63.6744179,17.3373459 67.6648263,16.478674 C71.8594011,15.5763408 76.7644493,14.1975302 81.0209693,14.3297796 C85.0126419,14.4538029 88.5523674,13.7495275 92.5952397,13.636894 C95.9592431,13.5432437 99.3308317,13.6242386 102.694203,13.536916 C111.743891,13.3027903 120.827079,13.9140482 129.671336,14.5658036 C122.663944,-5.95499906 168.821333,0.382214596 178.668723,3.06263767 C187.617908,5.49881066 197.871734,8.32477134 205.388594,14.1051455 C208.573083,16.5533411 211.597652,19.3369061 214.423111,22.1932398 C218.59177,26.4075027 220.899545,31.9265419 223.104288,37.3740778 C228.697054,34.6303775 234.044568,31.6405289 240.163869,30.2800686 C245.986717,28.9860494 251.951155,27.2320049 257.808137,26.2543718 C262.261238,25.5108645 268.724397,25.006545 272.472082,28.1552195 C276.542134,31.5753533 278.662809,36.8976003 281.092578,41.4554586 C292.76103,30.3680239 305.775842,22.2792968 322.41192,22.8171532 C338.690865,23.3436197 349.396006,37.4215357 351.369403,52.6770409 C353.543174,69.4866346 346.066136,87.0517583 335.930511,100.069148 C331.385756,105.907104 326.682978,111.545105 320.565574,115.900476 C317.532156,118.059495 314.331864,120.424797 311.005787,122.110502 C309.347172,122.950824 307.533695,123.710151 305.792277,124.356844 C305.006584,124.648552 304.197504,124.941525 303.380207,125.139583 C301.046516,125.706547 301.499727,124.949751 300.631862,126.995504 C299.92771,128.656531 300.014307,131.51413 299.712798,133.337147 C299.368307,135.420866 299.163508,137.533059 298.660362,139.588304 C297.788704,143.150811 296.881018,146.625996 295.789392,150.104978 C293.722445,156.688972 290.941232,163.324855 287.534246,169.330496 C290.423547,170.587181 294.46958,170.713736 297.557358,171.094664 C300.899238,171.506599 304.245543,172.372232 307.717002,173.34417 C314.672563,175.291843 320.887942,176.935785 327.502172,179.851599 C334.368607,182.878781 340.48854,187.398673 347.100242,190.995983 C353.180352,194.304116 359.326201,198.447509 364.972695,202.418787 C366.315894,203.363516 367.14773,204.184854 368.217233,205.381427 C369.311387,206.603942 369.659671,206.84313 370.966841,207.902391 C371.556585,208.379501 373.270823,210.787832 373.944003,210.87642 C375.149406,211.036512 374.964202,210.135444 375.910447,208.877493 C377.886372,206.251488 380.642301,204.217126 382.604321,201.52468 C384.240812,199.279604 385.947465,197.006054 387.696469,195.075466 C391.929601,190.403076 395.43709,185.224468 398.446489,179.623168 C400.012817,176.707354 401.66195,173.932015 403.362915,171.180089 C405.056294,168.440185 408.066957,164.823892 411.439178,164.985882 C411.16801,163.590619 410.306466,163.358391 411.79315,162.505415 C412.750773,161.955535 414.614817,162.841417 415.353103,163.399522 C417.306354,164.877678 417.39287,167.745401 417.269611,169.899358 C416.9523,175.450668 415.792408,180.930476 414.175512,186.179321 C412.232456,192.489326 409.796998,198.056455 407.139043,204.078549 C405.022793,208.876227 402.395179,215.220402 397.129205,217.409793 C400.66577,222.466276 398.967334,226.586889 396.603935,231.955328 C394.876423,235.879781 392.594564,239.935218 389.119312,242.532116 C385.201594,245.459953 380.95266,242.976322 376.855427,241.041304 C374.38078,239.871941 366.813352,237.113687 368.352501,233.516377 C366.461908,233.263901 365.27294,231.888887 363.55238,231.465562 C361.730686,231.01756 362.043572,231.758536 360.116318,232.036323 C358.638483,232.248934 356.42805,230.923909 355.036812,230.44933 C352.712603,229.657732 350.395347,228.845885 348.074298,228.045429 C341.541608,225.792127 335.118903,223.573627 328.521739,221.768328 C316.247109,218.409573 303.820776,216.504296 291.589128,213.504956 C289.137236,212.903823 286.69925,212.32357 284.146223,211.842031 C283.619057,211.742686 280.883987,211.590187 280.551505,211.025122 C279.969347,210.034833 281.758804,204.493014 281.912403,203.363516 C282.920593,195.949957 282.591272,187.83402 281.170957,180.50462 C280.581214,177.457822 277.946646,173.512487 277.969402,170.538458 C277.985204,168.543327 279.750642,166.364692 280.787276,164.557495 C283.351049,160.088857 286.037448,155.260806 287.93689,150.610563 C290.844521,143.496937 292.625762,135.467058 293.910177,127.847848 C294.578932,123.875937 295.357671,119.569922 295.539714,115.551818 C295.678775,112.489201 295.427834,109.276616 295.871564,106.139965 C294.178816,106.300689 291.783813,107.178977 290.259202,106.238677 C288.333845,105.052229 287.816792,101.665 288.062676,99.6420269 C281.47057,100.794305 281.689274,94.5336568 282.097607,89.6378983 C270.18327,89.6378983 285.441383,71.9082538 287.347778,68.1008634 C288.22386,66.3506155 288.197944,68.3166387 287.811103,65.6096392 C287.64107,64.4193947 286.828829,63.1006974 286.369297,62.0066343 C285.36806,59.6179192 284.285284,57.2659049 283.129184,54.9486931 C280.686141,50.0542001 277.918834,45.3248606 274.89869,40.7651041 C272.180054,42.6621552 269.729426,44.9078637 267.458945,47.3174603 C268.91529,43.5031094 273.36523,38.7775666 271.461996,34.4462408 C269.697822,30.4313012 263.806075,30.7097209 260.326398,31.4437367 C250.871539,33.440133 241.80352,36.3477213 232.796183,39.7140694 C235.586245,41.3162487 239.857935,40.0785462 242.630299,38.8534992 C246.063201,37.3361115 249.754629,35.7440566 253.454274,34.9404359 C256.681113,34.2393243 260.91867,34.4785122 259.986332,38.8307194 C259.230348,42.357159 255.786068,45.7532474 253.513691,48.3900092 C248.506243,54.1994908 242.227655,58.6966029 236.060316,63.1899183 C229.430915,68.0205014 223.042975,73.268714 216.329506,77.9588216 C204.193937,86.4379692 191.145623,93.8072343 178.60741,101.721949 C172.091786,105.834336 164.70893,109.143734 157.643385,112.191798 C149.870527,115.544858 142.418141,119.134575 134.353888,121.782726 C129.875503,123.253922 125.43694,124.464415 121.036302,126.138097 C118.277845,127.186601 113.474564,129.288038 111.652237,126.174165 C107.950695,119.849607 121.345396,111.531817 125.015965,107.664946 C127.548133,110.127695 115.061119,119.30479 116.038336,122.890711 C116.80633,125.708445 119.776539,122.070005 121.21076,121.30182 C123.528648,120.06032 126.273832,119.436407 128.603098,118.020263 C133.381095,115.115206 139.04592,111.76531 140.136914,105.760301 C139.377769,104.957946 139.387251,104.217603 140.165358,103.538638 C140.511746,103.126071 140.786707,102.673006 140.988977,102.178811 C141.329043,101.235347 141.465575,100.053329 141.647618,99.0529159 C142.18553,96.0953386 140.835378,93.3263275 142.097037,90.4320274 C134.733776,96.019406 127.655589,102.330676 120.665895,108.379345 C114.396156,113.804734 107.853985,120.908868 105.550003,129.004556 C105.254815,130.041669 104.76431,131.218626 104.818038,132.313321 C104.922966,134.462216 105.137246,133.999027 106.866022,134.690014 C108.595431,135.381001 111.113061,135.321521 112.972681,135.394922 C114.032702,135.436052 118.766453,134.312249 117.825266,136.641483 C117.282929,137.984226 114.001098,137.933604 112.826035,138.057628 C109.877318,138.369584 108.27812,138.049402 109.675047,141.250596 C110.301452,142.685091 111.570065,143.657029 112.565613,144.767544 C115.335448,147.856738 116.839831,152.594936 119.018659,156.224518 C121.501523,160.359051 124.230272,164.291098 127.129687,168.142149 C128.326241,169.73104 129.925438,172.717092 131.584052,173.85102 C133.132682,174.909648 131.310356,174.822326 133.882978,174.39204 C135.004312,174.205373 136.020719,173.474521 137.093382,173.213186 C143.506606,171.64834 150.098713,169.884804 156.731274,167.953583 C165.214605,165.483241 174.117647,163.376742 182.211609,159.819297 C189.462357,156.63139 196.659378,152.836655 203.985978,149.608251 C206.125615,148.666054 208.262725,148.041507 209.925764,146.307079 C211.933294,144.214501 213.595068,141.474597 215.446471,139.225092 C218.594931,135.398719 221.496873,131.506537 224.886161,127.880119 C227.408847,125.181979 231.879647,120.165993 235.438967,119.089015 C242.201739,117.043263 238.581738,127.358715 237.707552,129.965737 C239.297268,130.327049 240.132896,128.285094 241.998837,128.872306 C244.232657,129.575949 244.464003,132.551244 244.743389,134.415391 C244.817344,134.912117 244.14606,135.840394 244.350226,136.283334 C244.419757,136.434567 245.877365,137.297668 246.158647,137.69758 C247.179479,139.151058 246.978473,140.918391 246.591631,142.485767 C244.590422,150.604235 237.476838,156.532678 232.244997,162.521234 C234.585641,162.077661 236.320738,160.741878 238.529906,160.079999 C240.603806,159.458616 242.688452,159.490888 244.778786,159.313079 C246.967095,159.126411 249.069439,158.306338 251.308316,158.264575 C253.657808,158.220914 255.90743,158.89102 258.237328,159.156784" id="ink-layer"></path>
                        <path d="M10.8019893,86.1327945 C9.5118581,86.9773256 9.14818991,87.8058619 9.10364841,89.7540417 C9.08583182,90.5531474 9.14085366,93.5339585 10.255963,93.4213544 C11.3024261,93.315788 10.8019893,87.1577482 10.8019893,86.1327945 M4.13748093,90.9878724 C4.73863713,84.743689 7.01978118,78.395056 12.3859938,74.5044689 C13.7130868,73.5422671 15.2143525,73.5764506 16.6688255,72.9693772 C17.5429391,72.6047533 18.9239737,70.9095056 19.9163688,71.1101754 C23.5694488,71.8501845 19.3490073,76.7112028 18.7309538,77.9899184 C16.8157026,81.9514046 16.9450324,85.4324229 17.0022235,89.7059917 C17.0457667,92.9540559 17.7197116,98.4297439 16.0845667,101.369524 C14.3415387,104.499845 10.5610786,102.467193 8.45085787,100.614322 C5.78757345,98.2752852 3.77613731,94.5505512 4.13748093,90.9878724" id="ink-layer"></path>
                        <path d="M68.2660788,109.439562 C68.2660788,112.923877 71.0901447,110.564951 70.9892614,108.086736 C70.8416109,104.437906 68.1344627,106.684752 68.2660788,109.439562 M83.2790107,90.1777773 C80.1881812,92.9614911 77.8041717,94.5232877 77.2084869,98.8034855 C76.7575954,102.045656 77.2059467,105.256755 77.2249984,108.522388 C77.2573864,113.996602 72.8430951,119.751724 68.0928579,113.476637 C64.627979,108.899679 65.8707884,101.702606 68.6961634,97.1028202 C70.1790249,94.6894228 72.2956747,92.3020236 74.7406498,90.7979304 C76.579779,89.6660559 81.7529652,87.4390849 83.2790107,90.1777773" id="ink-layer"></path>
                        <path d="M40.115776,174.544253 C39.7573189,175.393333 38.9162331,178.859548 40.6323761,178.075515 C42.147619,177.382826 41.1659618,175.085395 40.115776,174.544253 M31.0471691,163.842592 C30.7822127,162.539087 30.8901808,154.36794 33.1376564,154.98065 C34.9029982,155.46112 35.1946364,159.64367 35.9138038,161.099565 C38.5919111,166.520128 44.7386513,169.896016 46.8583025,175.49101 C49.2242949,181.739016 42.0710926,181.932967 38.2754526,179.402783 C33.781122,176.406612 31.180578,169.071093 31.0471691,163.842592" id="ink-layer"></path>
                        <path d="M25.5374282,130.338524 C26.5128526,129.019718 26.6114808,128.315111 26.0554527,127.148419 C25.3446959,127.922626 25.470922,129.029045 25.5374282,130.338524 M26.2432254,136.238121 C21.1584275,136.808239 20.9038795,127.423932 21.7747667,124.202012 C22.4681482,121.636155 23.9590726,118.878727 25.493757,116.787858 C25.8037756,116.366011 28.7437133,112.57463 29.3199904,112.565445 C31.5314152,112.530674 30.9237048,115.032893 30.6851816,115.964501 C29.9338642,118.899065 29.6361724,121.35208 29.8383316,124.606146 C30.055283,128.087866 31.7015248,136.353588 26.2432254,136.238121" id="ink-layer"></path>
                        <path d="M257.119141,54.9691499 C249.848341,61.0753916 242.945594,67.6861983 235.039759,73.027434 C231.171068,75.6412568 227.126931,77.9538468 223.266504,80.6103443 C221.300375,81.963382 219.294198,83.1745893 217.113213,84.1692854 C215.186495,85.0478813 213.926596,85.1620988 215.525308,83.0766886 C216.59387,81.6834865 218.989077,80.712638 220.444762,79.7223349 C222.684865,78.1973434 224.800377,76.5054187 227.156808,75.1523809 C231.310915,72.7657379 235.439595,70.8391025 239.268875,67.912123 C242.667806,65.3152445 246.174165,62.7792401 249.417992,60.0191938 C250.808839,58.8355996 255.421265,53.4014838 257.119141,54.9691499" id="ink-layer"></path>
                        <path d="M257.266182,77.0182292 C260.535839,79.8193429 252.3549,87.4927682 250.488995,89.2319042 C248.521764,91.0660036 246.354967,92.7021073 244.215356,94.3270387 C243.462198,94.8993026 239.352883,98.7288775 238.309954,98.4197805 C236.251899,97.8096554 238.953753,95.3250868 239.656247,94.6771003 C241.928696,92.5792133 244.249337,90.5427732 246.471123,88.3884046 C248.474807,86.4469281 250.644693,84.6488278 252.582268,82.6446629 C254.152223,81.0209728 255.470712,78.2695133 257.266182,77.0182292" id="ink-layer"></path>
                        <path d="M15.0172919,189.928054 C14.1635621,187.946666 12.6345998,190.146245 13.4097253,191.135415 C14.1428194,192.072171 14.9081193,190.308364 15.0172919,189.928054 M10.0114325,186.015846 C10.4691015,183.102907 11.5268253,181.483933 14.2556766,183.97041 C16.130848,185.679294 19.9021675,190.537432 19.5442958,193.18611 C19.0745494,196.660375 15.2536492,195.67441 13.2729596,193.858 C11.2426892,191.996028 10.3464208,188.598915 10.0114325,186.015846" id="ink-layer"></path>
                        <path d="M15.9913886,243.347946 C12.6484932,243.093088 9.79653029,240.523052 8.37687527,237.510914 C7.18244181,234.977936 6.05190547,230.895004 10.2482387,232.226508 C12.9831624,233.094456 23.5261886,243.75624 15.9913886,243.347946" id="ink-layer"></path>
                        <path d="M56.5041644,226.834843 C53.9209645,227.423767 51.3653925,225.719864 49.7767936,223.798481 C48.7884717,222.602028 46.4878289,218.407063 47.646941,216.680064 C49.2625397,214.27176 51.7019494,219.112746 52.5433417,220.071192 C53.8631973,221.57173 58.1787862,224.441936 56.5041644,226.834843" id="ink-layer"></path>
                        <path d="M58.8309589,161.328125 C56.8060646,160.387142 54.9259364,159.254236 54.1117029,157.006435 C53.5937208,155.574774 53.1588114,151.282277 55.4585783,151.302083 C58.1187336,151.325754 64.2105199,160.898316 58.8309589,161.328125" id="ink-layer"></path>
                        <path d="M44.6336102,116.667838 C47.3450599,116.618772 47.9869932,118.116257 48.3640777,120.267951 C48.6200298,121.728146 49.8621502,126.685089 48.5721243,127.700422 C46.7291324,129.151458 43.7973176,125.826766 43.2046584,124.521619 C41.9830689,121.834782 43.672079,119.191777 44.6336102,116.667838" id="ink-layer"></path>
                        <path d="M91.2240278,265.297271 C92.5442599,265.898839 95.5478043,267.232894 94.4000027,269.302708 C93.2001466,271.467437 89.7547896,269.363585 88.4677422,268.417702 C87.9289782,268.021675 84.5057444,265.429498 84.6488943,264.560203 C84.9508103,262.71295 89.6695504,265.123805 91.2240278,265.297271" id="ink-layer"></path>
                        <path d="M4.24425267,130.114126 C5.1464093,132.376708 6.16191212,140.148624 1.41125681,135.951727 C-0.0385200957,134.670794 -0.25730461,133.071046 0.242209432,131.31252 C0.964461925,128.763886 2.01555018,129.269202 4.24425267,130.114126" id="ink-layer"></path>
                        <path d="M255.998545,101.171875 C254.946463,99.019568 257.543905,97.6312781 258.931639,96.2442087 C259.837838,95.3380063 263.648079,90.4237653 264.897348,90.7014233 C267.466974,91.2726054 257.262032,100.211972 255.998545,101.171875" id="ink-layer"></path>
                        <path d="M44.5994477,257.07023 C47.0782653,256.671932 47.6565315,259.429376 49.2536178,260.631206 C49.9384394,261.146854 52.289515,261.600069 51.8165581,262.694375 C50.5740337,265.568592 44.4779371,259.002753 44.5994477,257.07023" id="ink-layer"></path>
                        <path d="M65.53125,191.949669 C67.2349673,191.235235 72.1526429,195.0719 70.7407053,196.729388 C68.6299993,199.208931 65.6514682,193.306183 65.53125,191.949669" id="ink-layer"></path>
                        <path d="M101.444699,247.454433 C100.202755,247.577947 94.961686,245.928117 96.903461,243.719195 C98.2667263,242.167818 101.890394,246.049841 101.444699,247.454433" id="ink-layer"></path>
                        <path d="M38.6816406,236.855383 C37.4486272,237.34895 33.0016767,236.333406 34.3998687,234.39925 C35.7317433,232.558126 38.6834819,235.326776 38.6816406,236.855383" id="ink-layer"></path>
                        <path d="M75.0878906,245.198946 C76.5293951,245.049192 77.570775,245.919679 77.8183594,247.393645 C76.0154521,247.651095 75.4592672,247.221586 75.0878906,245.198946" id="ink-layer"></path>
                        <path d="M262.580078,31.2131185 C263.18916,31.2158529 263.797087,31.219043 264.400391,31.2217773 C263.79073,31.2185872 263.185693,31.2158529 262.580078,31.2131185" id="ink-layer"></path>
                        <path d="M253.023438,158.136198 C252.113035,158.137109 251.202633,158.138932 250.292969,158.139844 C251.203371,158.138021 252.113773,158.137109 253.023438,158.136198" id="ink-layer"></path>
                        <path d="M128.850365,9.5703125 C128.808498,10.4828206 128.766631,11.3953287 128.723854,12.3046875 C128.764811,11.3913921 128.807588,10.4804586 128.850365,9.5703125" id="ink-layer"></path>
                        <path d="M410.847077,164.518229 C411.137671,165.532221 410.712468,165.700168 409.570312,165.022071 C409.995515,164.854124 410.421296,164.686176 410.847077,164.518229" id="ink-layer"></path>
                        <path d="M384.996094,244.038639 C385.452864,244.041374 385.909633,244.044564 386.361328,244.047298 C385.903289,244.044564 385.449692,244.041374 384.996094,244.038639" id="ink-layer"></path>
                        <path d="M298.53125,170.681985 C297.768071,171.264407 297.008934,171.346438 296.255859,170.650995 C297.014323,170.661933 297.772786,170.671959 298.53125,170.681985" id="ink-layer"></path>
                        <path d="M281.495173,92.96875 C281.47606,93.7295666 281.456491,94.4896225 281.436468,95.2473958 C281.455581,94.4858184 281.475604,93.7272842 281.495173,92.96875" id="ink-layer"></path>
                        <path d="M320.830078,22.6495964 C320.071615,22.6491406 319.312465,22.6482292 318.554688,22.6473177 C319.313837,22.3629427 320.072301,22.4563672 320.830078,22.6495964" id="ink-layer"></path>
                        <path d="M98.296875,13.3770182 C97.5386307,13.4216797 96.7797287,13.4663411 96.0214844,13.5110026 C96.7797287,13.4663411 97.5386307,13.4216797 98.296875,13.3770182" id="ink-layer"></path>
                        <path d="M116.955078,13.5214844 C116.348307,13.469987 115.741001,13.4180339 115.134766,13.3665365 C115.741001,13.4180339 116.347772,13.469987 116.955078,13.5214844" id="ink-layer"></path>
                        <path d="M126.966797,14.2437381 C126.360246,14.4702354 125.753696,14.6042198 125.146484,14.2469282 C125.753696,14.2460167 126.360246,14.2446495 126.966797,14.2437381" id="ink-layer"></path>
                        <path d="M72.8125,15.4916016 C72.053517,15.6460938 71.2953132,15.8005859 70.5371094,15.9537109 C71.2960924,15.8005859 72.0542962,15.6460938 72.8125,15.4916016" id="ink-layer"></path>
                        <path d="M281.951844,200.976562 C281.93091,201.433208 281.909977,201.889303 281.889953,202.34375 C281.911342,201.886555 281.931365,201.431559 281.951844,200.976562" id="ink-layer"></path>
                        <path d="M31.1598818,164.0625 C31.1689834,164.366998 31.1776299,164.671496 31.1858213,164.973958 C31.1762646,164.668646 31.1685283,164.365777 31.1598818,164.0625" id="ink-layer"></path>
                        <path d="M413.666016,162.427391 L411.390625,162.43924 C412.147214,161.873225 412.906213,161.94523 413.666016,162.427391" id="ink-layer"></path>
                        <path d="M258.029297,159.19987 C257.421899,159.099609 256.815128,158.999349 256.208984,158.899089 C256.815128,158.999349 257.422526,159.099609 258.029297,159.19987" id="ink-layer"></path>
                        <path d="M91.4707031,265.228678 C90.711981,265.081022 89.9540346,264.931999 89.1953125,264.784342 L91.4707031,265.228678 Z" id="ink-layer"></path>
                        <path d="M244.625426,134.440104 C244.611318,133.983821 244.597211,133.527537 244.583559,133.072917 C244.597211,133.5292 244.611318,133.984929 244.625426,134.440104" id="ink-layer"></path>
                        <path d="M100.572266,13.5280924 C100.117031,13.4720378 99.6617955,13.4159831 99.2070312,13.3599284 C99.6617955,13.4159831 100.117031,13.4720378 100.572266,13.5280924" id="ink-layer"></path>
                        <path d="M175.205078,2.25791016 C174.75,2.11982422 174.29446,1.98173828 173.839844,1.84365234 C174.294922,1.98173828 174.75,2.11982422 175.205078,2.25791016" id="ink-layer"></path>
                        <path d="M229.359375,309.640169 C229.663745,309.658854 229.968608,309.677539 230.269531,309.695768 C229.963683,309.677083 229.661283,309.658398 229.359375,309.640169" id="ink-layer"></path>
                        <path d="M20.4785156,64.9231771 C20.9353794,64.935026 21.3922431,64.9473307 21.84375,64.9596354 C21.3845905,64.9473307 20.931553,64.935026 20.4785156,64.9231771" id="ink-layer"></path>
                        <path d="M325.835938,23.0945312 C325.077474,23.0412109 324.31901,22.9878906 323.560547,22.9341146 C324.319798,22.9878906 325.077474,23.0412109 325.835938,23.0945312" id="ink-layer"></path>
                        <path d="M86.0097656,20.9608073 C84.9453456,20.9626302 83.882328,20.9644531 82.8242188,20.966276 C83.8907424,20.9644531 84.950254,20.9626302 86.0097656,20.9608073" id="ink-layer"></path>
                        <path d="M301.012336,114.84375 C301.025988,115.60435 301.041006,116.36495 301.056023,117.122396 C301.042371,116.36127 301.028719,115.602247 301.012336,114.84375" id="ink-layer"></path>
                        <path d="M245.287109,278.009375 C244.678228,278.00026 244.070498,277.990234 243.466797,277.980208 C244.076829,277.988411 244.681681,277.999349 245.287109,278.009375" id="ink-layer"></path>
                        <path d="M309.908203,36.5466571 C310.818147,36.4454852 311.728091,36.3443134 312.638672,36.2431415 C311.764998,37.0169696 310.821329,36.5019957 309.908203,36.5466571" id="ink-layer"></path>
                        <path d="M240.28125,278.247949 C239.82469,278.230632 239.368623,278.21377 238.916016,278.197363 C239.374058,278.214681 239.827654,278.231087 240.28125,278.247949" id="ink-layer"></path>
                        <path d="M224.546469,286.197917 C224.569223,286.958836 224.592432,287.71907 224.615641,288.476562 C224.593342,287.714272 224.569678,286.956094 224.546469,286.197917" id="ink-layer"></path>
                        <path d="M293.980469,64.5301269 C294.587427,64.4736165 295.194386,64.4171061 295.800781,64.3610514 C295.246749,64.7885254 294.596436,64.53833 293.980469,64.5301269" id="ink-layer"></path>
                        <path d="M95.1113281,185.770247 C95.718099,185.882357 96.3254986,185.993555 96.9316406,186.104753 C96.3248698,185.993555 95.718099,185.882357 95.1113281,185.770247" id="ink-layer"></path>
                        <path d="M189.767578,65.8547829 C190.524718,65.2085589 191.283446,65.2787412 192.042969,65.8474912 C191.28424,65.8493141 190.526306,65.8520485 189.767578,65.8547829" id="ink-layer"></path>
                        <path d="M161.291975,88.8671875 C161.313818,88.5632331 161.335207,88.2592788 161.358416,87.9557292 C161.337482,88.2600883 161.314729,88.5636379 161.291975,88.8671875" id="ink-layer"></path>
                        <path d="M293.743373,80.2083333 C293.749744,80.8169619 293.75566,81.4255904 293.762486,82.03125 C293.75657,81.421137 293.750199,80.8147352 293.743373,80.2083333" id="ink-layer"></path>
                        <path d="M92.9652738,175.469916 C93.9638364,175.809138 95.9720421,176.832972 97.1355109,176.697283 C98.0669377,176.588115 98.834762,175.454497 99.7329468,175.455729 C102.151789,175.458814 101.703348,178.258938 100.534665,179.762 C97.3740709,183.827731 90.3117828,179.419078 92.9652738,175.469916" id="ink-layer"></path>
                        <path d="M102.837225,160.872396 C106.135738,161.725003 104.492939,168.990785 101.720071,169.490245 C98.4551375,170.078824 97.8862281,164.171094 98.5313365,162.035586 C100.211589,163.035171 99.1712789,166.601889 101.288707,165.61627 C102.635104,164.988453 102.4304,162.087461 102.837225,160.872396" id="ink-layer"></path>
                    </g>
                </g>
            </g>
        </g>
    </g>
</svg>